<?xml version="1.0" standalone="no"?>
<!DOCTYPE svg PUBLIC "-//W3C//DTD SVG 20010904//EN"
 "http://www.w3.org/TR/2001/REC-SVG-20010904/DTD/svg10.dtd">
<svg version="1.0" xmlns="http://www.w3.org/2000/svg"
 width="780.000000pt" height="780.000000pt" viewBox="0 0 780.000000 780.000000"
 preserveAspectRatio="xMidYMid meet">
<metadata>
Created by potrace 1.11, written by Peter Selinger 2001-2013
</metadata>
<g transform="translate(0.000000,780.000000) scale(0.100000,-0.100000)"
fill="#000000" stroke="none">
<path d="M3669 7796 c-2 -2 -44 -7 -94 -10 -89 -7 -103 -8 -200 -21 -27 -4
-66 -9 -85 -11 -19 -3 -42 -7 -50 -9 -8 -3 -33 -7 -55 -11 -22 -3 -44 -7 -50
-8 -5 -2 -37 -8 -70 -15 -179 -38 -406 -108 -610 -189 -146 -58 -427 -196
-553 -273 -41 -24 -81 -49 -90 -54 -40 -24 -202 -135 -212 -145 -3 -3 -32 -25
-65 -50 -166 -123 -401 -342 -564 -525 -155 -175 -355 -457 -477 -675 -79
-139 -195 -386 -227 -480 -9 -25 -28 -76 -42 -115 -40 -105 -121 -385 -140
-490 -28 -146 -44 -240 -50 -295 -4 -36 -9 -74 -11 -85 -18 -98 -26 -606 -11
-755 4 -41 10 -100 13 -130 3 -30 7 -66 9 -79 2 -13 7 -45 10 -70 6 -42 26
-143 45 -231 4 -19 11 -51 15 -70 23 -109 82 -308 130 -435 166 -446 380 -814
680 -1175 93 -112 318 -340 425 -431 41 -35 77 -67 80 -70 13 -16 229 -175
321 -236 368 -247 809 -441 1239 -544 125 -30 292 -61 405 -75 28 -3 61 -8 75
-10 120 -19 596 -26 760 -11 112 10 219 23 270 32 14 2 54 9 90 15 72 11 82
13 155 30 28 6 57 13 65 15 129 27 377 106 545 173 277 110 521 242 799 432
156 107 326 251 502 425 121 120 174 178 289 316 198 236 421 607 555 924 131
307 243 714 275 1001 3 28 7 60 10 72 26 138 27 728 1 892 -3 14 -7 48 -10 75
-3 28 -8 61 -10 75 -3 14 -7 41 -10 61 -10 69 -58 285 -82 374 -100 364 -249
702 -467 1060 -7 11 -24 36 -39 56 -16 20 -28 41 -28 46 0 5 -8 18 -18 29 -9
10 -39 49 -65 86 -131 185 -417 499 -569 625 -35 28 -73 61 -86 73 -20 19
-244 188 -288 218 -63 42 -163 106 -184 118 -14 8 -38 23 -55 34 -58 36 -341
178 -440 220 -251 107 -599 211 -820 246 -27 4 -52 9 -55 9 -3 1 -30 5 -60 9
-30 5 -63 10 -72 11 -9 2 -48 7 -85 11 -37 3 -79 8 -93 11 -30 4 -566 13 -571
9z"/>
</g>
</svg>
